<svg xmlns="http://www.w3.org/2000/svg" xmlns:xlink="http://www.w3.org/1999/xlink" width="1200" zoomAndPan="magnify" viewBox="0 0 900 899.99999" height="1200" preserveAspectRatio="xMidYMid meet" version="1.0"><defs><g/><clipPath id="100454df7e"><path d="M 19.1875 23.398438 L 872.6875 23.398438 L 872.6875 876.898438 L 19.1875 876.898438 Z M 19.1875 23.398438 " clip-rule="nonzero"/></clipPath></defs><g fill="#000000" fill-opacity="1"><g transform="translate(445.789061, 461.624996)"><g><path d="M 4.203125 0.15625 C 3.609375 0.15625 3.140625 -0.0078125 2.796875 -0.34375 C 2.453125 -0.675781 2.28125 -1.117188 2.28125 -1.671875 C 2.28125 -2.210938 2.453125 -2.65625 2.796875 -3 C 3.140625 -3.351562 3.609375 -3.53125 4.203125 -3.53125 C 4.804688 -3.53125 5.28125 -3.363281 5.625 -3.03125 C 5.96875 -2.695312 6.140625 -2.253906 6.140625 -1.703125 C 6.140625 -1.148438 5.960938 -0.703125 5.609375 -0.359375 C 5.265625 -0.015625 4.796875 0.15625 4.203125 0.15625 Z M 4.203125 0.15625 "/></g></g></g><g clip-path="url(#100454df7e)"><path fill="#324a5e" d="M 872.6875 450.148438 C 872.6875 457.132812 872.519531 464.113281 872.175781 471.089844 C 871.832031 478.066406 871.320312 485.027344 870.632812 491.980469 C 869.949219 498.929688 869.09375 505.859375 868.070312 512.765625 C 867.046875 519.675781 865.851562 526.554688 864.488281 533.40625 C 863.125 540.253906 861.597656 547.066406 859.898438 553.839844 C 858.203125 560.617188 856.339844 567.34375 854.3125 574.027344 C 852.285156 580.710938 850.097656 587.34375 847.742188 593.917969 C 845.390625 600.492188 842.878906 607.007812 840.203125 613.460938 C 837.53125 619.914062 834.703125 626.296875 831.714844 632.609375 C 828.730469 638.921875 825.589844 645.160156 822.300781 651.320312 C 819.007812 657.476562 815.566406 663.554688 811.976562 669.542969 C 808.382812 675.535156 804.648438 681.433594 800.769531 687.238281 C 796.886719 693.046875 792.867188 698.753906 788.707031 704.363281 C 784.546875 709.972656 780.253906 715.480469 775.820312 720.878906 C 771.390625 726.277344 766.832031 731.5625 762.140625 736.738281 C 757.449219 741.914062 752.636719 746.96875 747.695312 751.90625 C 742.757812 756.847656 737.703125 761.660156 732.527344 766.351562 C 727.351562 771.042969 722.066406 775.601562 716.667969 780.03125 C 711.269531 784.460938 705.761719 788.757812 700.152344 792.917969 C 694.542969 797.078125 688.835938 801.097656 683.027344 804.980469 C 677.222656 808.859375 671.324219 812.59375 665.332031 816.1875 C 659.34375 819.777344 653.265625 823.21875 647.109375 826.511719 C 640.949219 829.800781 634.710938 832.941406 628.398438 835.925781 C 622.085938 838.914062 615.703125 841.742188 609.25 844.414062 C 602.796875 847.089844 596.28125 849.601562 589.707031 851.953125 C 583.132812 854.308594 576.5 856.496094 569.816406 858.523438 C 563.132812 860.550781 556.40625 862.414062 549.628906 864.109375 C 542.855469 865.808594 536.042969 867.335938 529.195312 868.699219 C 522.34375 870.0625 515.464844 871.257812 508.554688 872.28125 C 501.648438 873.304688 494.71875 874.160156 487.769531 874.84375 C 480.816406 875.53125 473.855469 876.042969 466.878906 876.386719 C 459.902344 876.730469 452.921875 876.898438 445.9375 876.898438 C 438.953125 876.898438 431.976562 876.730469 425 876.386719 C 418.023438 876.042969 411.0625 875.53125 404.109375 874.84375 C 397.160156 874.160156 390.230469 873.304688 383.320312 872.28125 C 376.414062 871.257812 369.535156 870.0625 362.683594 868.699219 C 355.835938 867.335938 349.023438 865.808594 342.246094 864.109375 C 335.472656 862.414062 328.742188 860.550781 322.058594 858.523438 C 315.375 856.496094 308.746094 854.308594 302.171875 851.953125 C 295.59375 849.601562 289.082031 847.089844 282.628906 844.414062 C 276.175781 841.742188 269.792969 838.914062 263.480469 835.925781 C 257.167969 832.941406 250.929688 829.800781 244.769531 826.511719 C 238.609375 823.21875 232.535156 819.777344 226.546875 816.1875 C 220.554688 812.59375 214.65625 808.859375 208.847656 804.980469 C 203.042969 801.097656 197.335938 797.078125 191.722656 792.917969 C 186.113281 788.757812 180.609375 784.464844 175.210938 780.03125 C 169.8125 775.601562 164.527344 771.042969 159.351562 766.351562 C 154.175781 761.660156 149.121094 756.847656 144.179688 751.90625 C 139.242188 746.96875 134.429688 741.914062 129.738281 736.738281 C 125.046875 731.5625 120.488281 726.277344 116.058594 720.878906 C 111.625 715.480469 107.332031 709.972656 103.171875 704.363281 C 99.011719 698.753906 94.988281 693.046875 91.109375 687.238281 C 87.230469 681.433594 83.492188 675.535156 79.902344 669.542969 C 76.3125 663.554688 72.871094 657.476562 69.578125 651.320312 C 66.285156 645.160156 63.148438 638.921875 60.160156 632.609375 C 57.175781 626.296875 54.347656 619.914062 51.671875 613.460938 C 49 607.007812 46.488281 600.492188 44.136719 593.917969 C 41.78125 587.34375 39.59375 580.710938 37.566406 574.027344 C 35.539062 567.34375 33.675781 560.617188 31.976562 553.839844 C 30.28125 547.066406 28.75 540.253906 27.390625 533.40625 C 26.027344 526.554688 24.832031 519.675781 23.808594 512.765625 C 22.785156 505.859375 21.929688 498.929688 21.242188 491.980469 C 20.558594 485.027344 20.046875 478.066406 19.703125 471.089844 C 19.359375 464.113281 19.1875 457.132812 19.1875 450.148438 C 19.1875 443.164062 19.359375 436.1875 19.703125 429.210938 C 20.046875 422.234375 20.558594 415.273438 21.242188 408.320312 C 21.929688 401.371094 22.785156 394.441406 23.808594 387.53125 C 24.832031 380.625 26.027344 373.746094 27.390625 366.894531 C 28.75 360.046875 30.28125 353.234375 31.976562 346.457031 C 33.675781 339.683594 35.539062 332.953125 37.566406 326.269531 C 39.59375 319.585938 41.78125 312.957031 44.136719 306.382812 C 46.488281 299.804688 49 293.292969 51.671875 286.839844 C 54.347656 280.386719 57.175781 274.003906 60.160156 267.691406 C 63.148438 261.378906 66.285156 255.140625 69.578125 248.980469 C 72.871094 242.820312 76.3125 236.746094 79.902344 230.757812 C 83.492188 224.765625 87.230469 218.867188 91.109375 213.058594 C 94.988281 207.253906 99.011719 201.546875 103.171875 195.933594 C 107.332031 190.324219 111.625 184.820312 116.058594 179.421875 C 120.488281 174.023438 125.046875 168.738281 129.738281 163.5625 C 134.429688 158.386719 139.242188 153.332031 144.179688 148.390625 C 149.121094 143.453125 154.175781 138.640625 159.351562 133.949219 C 164.527344 129.257812 169.8125 124.699219 175.210938 120.269531 C 180.609375 115.835938 186.113281 111.542969 191.722656 107.382812 C 197.335938 103.222656 203.042969 99.199219 208.847656 95.320312 C 214.65625 91.441406 220.554688 87.703125 226.546875 84.113281 C 232.535156 80.523438 238.609375 77.082031 244.769531 73.789062 C 250.929688 70.496094 257.167969 67.359375 263.480469 64.371094 C 269.792969 61.386719 276.175781 58.558594 282.628906 55.882812 C 289.082031 53.210938 295.59375 50.699219 302.171875 48.347656 C 308.746094 45.992188 315.375 43.804688 322.058594 41.777344 C 328.742188 39.75 335.472656 37.886719 342.246094 36.1875 C 349.023438 34.492188 355.835938 32.960938 362.683594 31.601562 C 369.535156 30.238281 376.414062 29.042969 383.320312 28.019531 C 390.230469 26.996094 397.160156 26.140625 404.109375 25.453125 C 411.0625 24.769531 418.023438 24.257812 425 23.914062 C 431.976562 23.570312 438.953125 23.398438 445.9375 23.398438 C 452.921875 23.398438 459.902344 23.570312 466.878906 23.914062 C 473.855469 24.257812 480.816406 24.769531 487.769531 25.453125 C 494.71875 26.140625 501.648438 26.996094 508.554688 28.019531 C 515.464844 29.042969 522.34375 30.238281 529.195312 31.601562 C 536.042969 32.960938 542.855469 34.492188 549.628906 36.1875 C 556.40625 37.886719 563.132812 39.75 569.816406 41.777344 C 576.5 43.804688 583.132812 45.992188 589.707031 48.347656 C 596.28125 50.699219 602.796875 53.210938 609.25 55.882812 C 615.703125 58.558594 622.085938 61.386719 628.398438 64.371094 C 634.710938 67.359375 640.949219 70.496094 647.109375 73.789062 C 653.265625 77.082031 659.34375 80.523438 665.332031 84.113281 C 671.324219 87.703125 677.222656 91.441406 683.027344 95.320312 C 688.835938 99.199219 694.542969 103.222656 700.152344 107.382812 C 705.761719 111.542969 711.269531 115.835938 716.667969 120.269531 C 722.066406 124.699219 727.351562 129.257812 732.527344 133.949219 C 737.703125 138.640625 742.757812 143.453125 747.695312 148.390625 C 752.636719 153.332031 757.449219 158.386719 762.140625 163.5625 C 766.832031 168.738281 771.390625 174.023438 775.820312 179.421875 C 780.25 184.820312 784.546875 190.324219 788.707031 195.933594 C 792.867188 201.546875 796.886719 207.253906 800.769531 213.058594 C 804.648438 218.867188 808.382812 224.765625 811.976562 230.757812 C 815.566406 236.746094 819.007812 242.820312 822.300781 248.980469 C 825.589844 255.140625 828.730469 261.378906 831.714844 267.691406 C 834.703125 274.003906 837.53125 280.386719 840.203125 286.839844 C 842.878906 293.292969 845.390625 299.804688 847.742188 306.382812 C 850.097656 312.957031 852.285156 319.585938 854.3125 326.269531 C 856.339844 332.953125 858.203125 339.683594 859.898438 346.457031 C 861.597656 353.234375 863.125 360.046875 864.488281 366.894531 C 865.851562 373.746094 867.046875 380.625 868.070312 387.53125 C 869.09375 394.441406 869.949219 401.371094 870.632812 408.320312 C 871.320312 415.273438 871.832031 422.234375 872.175781 429.210938 C 872.519531 436.1875 872.6875 443.164062 872.6875 450.148438 Z M 872.6875 450.148438 " fill-opacity="1" fill-rule="nonzero"/></g><path fill="#4cdbc4" d="M 605.046875 736.609375 C 649.234375 736.609375 685.523438 700.992188 685.859375 656.804688 C 685.859375 656.46875 685.859375 656.300781 685.859375 655.964844 C 685.859375 542.890625 578.5 451.324219 445.9375 451.324219 C 313.378906 451.324219 206.019531 542.890625 206.019531 655.964844 C 206.019531 656.300781 206.019531 656.46875 206.019531 656.804688 C 206.1875 700.992188 242.476562 736.609375 286.832031 736.609375 Z M 605.046875 736.609375 " fill-opacity="1" fill-rule="nonzero"/><path fill="#2c9984" d="M 601.183594 373.03125 C 601.183594 373.199219 601.183594 373.535156 601.183594 373.703125 C 597.316406 429.148438 569.597656 480.558594 525.578125 514.5 C 520.535156 518.363281 515.328125 522.226562 509.953125 525.921875 C 491.46875 538.523438 470.132812 550.621094 445.9375 561.878906 C 421.746094 550.621094 400.40625 538.523438 381.925781 525.753906 C 376.550781 522.058594 371.34375 518.195312 366.300781 514.332031 C 322.28125 480.390625 294.558594 428.980469 290.695312 373.535156 L 290.695312 372.863281 C 294.054688 343.292969 308.671875 313.890625 334.546875 286.339844 C 360.421875 258.785156 397.550781 232.910156 445.9375 210.230469 C 542.714844 255.59375 594.628906 313.890625 601.183594 373.03125 Z M 601.183594 373.03125 " fill-opacity="1" fill-rule="nonzero"/><path fill="#f9b54c" d="M 509.953125 525.921875 C 491.46875 538.523438 470.132812 550.621094 445.9375 561.878906 C 421.746094 550.621094 400.40625 538.523438 381.925781 525.753906 L 388.984375 456.199219 L 503.0625 456.199219 Z M 509.953125 525.921875 " fill-opacity="1" fill-rule="nonzero"/><path fill="#ffd05b" d="M 559.179688 362.953125 C 559.179688 448.132812 508.945312 517.1875 446.777344 517.1875 C 390.496094 517.1875 343.789062 460.398438 335.722656 386.136719 C 334.882812 378.578125 322.785156 370.34375 329.003906 324.980469 C 338.242188 257.945312 394.527344 208.550781 446.777344 208.550781 C 508.777344 208.71875 559.179688 277.769531 559.179688 362.953125 Z M 559.179688 362.953125 " fill-opacity="1" fill-rule="nonzero"/><path fill="#ffd05b" d="M 335.554688 386.136719 L 329.507812 373.03125 L 335.554688 366.3125 L 343.453125 379.753906 Z M 335.554688 386.136719 " fill-opacity="1" fill-rule="nonzero"/><path fill="#324a5e" d="M 459.546875 186.203125 C 463.75 187.546875 548.929688 189.730469 584.378906 253.914062 L 562.035156 239.96875 C 562.035156 239.96875 579.339844 257.441406 582.027344 296.921875 C 583.707031 322.125 578.835938 347.160156 568.417969 370.511719 L 557.164062 395.546875 C 557.164062 395.546875 560.523438 307.003906 541.539062 297.089844 C 541.539062 297.089844 526.753906 315.238281 541.539062 332.039062 C 541.539062 332.039062 495.335938 331.199219 502.726562 269.875 C 502.726562 269.875 437.539062 263.65625 433.507812 326.324219 C 433.507812 326.324219 406.289062 324.980469 409.648438 290.707031 C 409.648438 290.707031 374.199219 293.5625 365.964844 331.199219 C 365.964844 331.199219 364.117188 309.019531 348.660156 295.242188 C 348.660156 295.242188 336.5625 354.71875 335.722656 386.136719 C 335.722656 386.136719 245.5 223.335938 456.1875 185.027344 C 457.363281 184.859375 458.371094 185.699219 459.546875 186.203125 Z M 459.546875 186.203125 " fill-opacity="1" fill-rule="nonzero"/><path fill="#4cdbc4" d="M 445.9375 124.207031 C 445.769531 124.207031 445.601562 124.207031 445.433594 124.207031 C 445.265625 124.207031 445.097656 124.207031 444.929688 124.207031 C 358.910156 126.390625 289.6875 226.863281 289.6875 350.351562 C 289.6875 357.910156 290.023438 365.472656 290.527344 373.03125 C 296.074219 324.980469 331.859375 277.433594 397.71875 237.109375 C 426.953125 219.132812 463.917969 219.132812 493.152344 237.109375 C 559.011719 277.433594 594.796875 324.980469 600.34375 373.03125 C 600.847656 365.640625 601.183594 358.078125 601.183594 350.351562 C 601.351562 226.863281 531.960938 126.390625 445.9375 124.207031 Z M 445.9375 124.207031 " fill-opacity="1" fill-rule="nonzero"/><path fill="#e6e9ee" d="M 605.046875 531.46875 L 286.832031 531.46875 C 272.71875 531.46875 263.644531 542.722656 266.671875 556.332031 L 303.128906 721.65625 C 304.976562 730.058594 315.058594 736.609375 325.8125 736.609375 L 565.898438 736.609375 C 576.652344 736.609375 586.734375 730.058594 588.582031 721.65625 L 625.039062 556.332031 C 628.0625 542.722656 619.160156 531.46875 605.046875 531.46875 Z M 605.046875 531.46875 " fill-opacity="1" fill-rule="nonzero"/><path fill="#ced5e0" d="M 491.132812 627.570312 C 491.132812 628.242188 491.0625 628.910156 490.917969 629.578125 C 490.773438 630.246094 490.554688 630.910156 490.265625 631.570312 C 489.976562 632.226562 489.617188 632.878906 489.1875 633.519531 C 488.757812 634.164062 488.261719 634.792969 487.695312 635.414062 C 487.128906 636.035156 486.496094 636.640625 485.796875 637.234375 C 485.101562 637.824219 484.339844 638.398438 483.515625 638.957031 C 482.695312 639.515625 481.8125 640.054688 480.875 640.574219 C 479.9375 641.09375 478.945312 641.589844 477.898438 642.0625 C 476.851562 642.539062 475.753906 642.988281 474.609375 643.414062 C 473.464844 643.839844 472.277344 644.242188 471.046875 644.613281 C 469.816406 644.988281 468.550781 645.332031 467.242188 645.648438 C 465.9375 645.964844 464.601562 646.25 463.234375 646.507812 C 461.867188 646.765625 460.476562 646.992188 459.058594 647.183594 C 457.640625 647.378906 456.207031 647.542969 454.757812 647.675781 C 453.304688 647.804688 451.84375 647.902344 450.367188 647.96875 C 448.894531 648.035156 447.417969 648.066406 445.9375 648.066406 C 444.457031 648.066406 442.980469 648.035156 441.507812 647.96875 C 440.035156 647.902344 438.574219 647.804688 437.121094 647.675781 C 435.671875 647.542969 434.234375 647.378906 432.820312 647.183594 C 431.402344 646.992188 430.011719 646.765625 428.644531 646.507812 C 427.277344 646.25 425.941406 645.964844 424.632812 645.648438 C 423.328125 645.332031 422.0625 644.988281 420.828125 644.613281 C 419.597656 644.242188 418.410156 643.839844 417.265625 643.414062 C 416.125 642.988281 415.027344 642.539062 413.980469 642.0625 C 412.933594 641.589844 411.941406 641.09375 411.003906 640.574219 C 410.0625 640.054688 409.183594 639.515625 408.359375 638.957031 C 407.539062 638.398438 406.777344 637.824219 406.082031 637.234375 C 405.382812 636.640625 404.75 636.035156 404.183594 635.414062 C 403.617188 634.792969 403.121094 634.164062 402.691406 633.519531 C 402.261719 632.878906 401.902344 632.226562 401.613281 631.570312 C 401.324219 630.910156 401.105469 630.246094 400.960938 629.578125 C 400.816406 628.910156 400.742188 628.242188 400.742188 627.570312 C 400.742188 626.898438 400.816406 626.230469 400.960938 625.5625 C 401.105469 624.894531 401.324219 624.230469 401.613281 623.570312 C 401.902344 622.914062 402.261719 622.261719 402.691406 621.621094 C 403.121094 620.976562 403.617188 620.347656 404.183594 619.726562 C 404.75 619.105469 405.382812 618.5 406.082031 617.90625 C 406.777344 617.316406 407.539062 616.742188 408.359375 616.183594 C 409.183594 615.625 410.0625 615.085938 411.003906 614.566406 C 411.941406 614.046875 412.933594 613.550781 413.980469 613.078125 C 415.027344 612.601562 416.125 612.152344 417.265625 611.726562 C 418.410156 611.300781 419.597656 610.902344 420.828125 610.527344 C 422.0625 610.15625 423.328125 609.808594 424.632812 609.492188 C 425.941406 609.175781 427.277344 608.890625 428.644531 608.632812 C 430.011719 608.375 431.402344 608.152344 432.820312 607.957031 C 434.234375 607.761719 435.671875 607.597656 437.121094 607.46875 C 438.574219 607.335938 440.035156 607.238281 441.507812 607.171875 C 442.980469 607.105469 444.457031 607.074219 445.9375 607.074219 C 447.417969 607.074219 448.894531 607.105469 450.367188 607.171875 C 451.84375 607.238281 453.304688 607.335938 454.757812 607.46875 C 456.207031 607.597656 457.640625 607.761719 459.058594 607.957031 C 460.476562 608.152344 461.867188 608.375 463.234375 608.632812 C 464.601562 608.890625 465.9375 609.175781 467.242188 609.492188 C 468.550781 609.808594 469.816406 610.15625 471.046875 610.527344 C 472.277344 610.902344 473.464844 611.300781 474.609375 611.726562 C 475.753906 612.152344 476.851562 612.601562 477.898438 613.078125 C 478.945312 613.550781 479.9375 614.046875 480.875 614.566406 C 481.8125 615.085938 482.695312 615.625 483.515625 616.183594 C 484.339844 616.742188 485.101562 617.316406 485.796875 617.90625 C 486.496094 618.5 487.128906 619.105469 487.695312 619.726562 C 488.261719 620.347656 488.757812 620.976562 489.1875 621.621094 C 489.617188 622.261719 489.976562 622.914062 490.265625 623.570312 C 490.554688 624.230469 490.773438 624.894531 490.917969 625.5625 C 491.0625 626.230469 491.132812 626.898438 491.132812 627.570312 Z M 491.132812 627.570312 " fill-opacity="1" fill-rule="nonzero"/></svg>