<svg xmlns="http://www.w3.org/2000/svg" xmlns:xlink="http://www.w3.org/1999/xlink" width="500" zoomAndPan="magnify" viewBox="0 0 375 374.999991" height="500" preserveAspectRatio="xMidYMid meet" version="1.0"><defs><clipPath id="e95286c6f5"><path d="M 9.960938 9.960938 L 364.710938 9.960938 L 364.710938 364.710938 L 9.960938 364.710938 Z M 9.960938 9.960938 " clip-rule="nonzero"/></clipPath></defs><g clip-path="url(#e95286c6f5)"><path fill="#f03c2e" d="M 358.015625 171.539062 L 203.136719 16.660156 C 202.605469 16.128906 202.050781 15.628906 201.472656 15.152344 C 200.894531 14.679688 200.296875 14.234375 199.675781 13.816406 C 199.050781 13.402344 198.410156 13.015625 197.75 12.664062 C 197.089844 12.3125 196.417969 11.992188 195.726562 11.707031 C 195.035156 11.417969 194.332031 11.167969 193.613281 10.949219 C 192.898438 10.734375 192.171875 10.550781 191.441406 10.40625 C 190.707031 10.257812 189.964844 10.148438 189.222656 10.074219 C 188.476562 10.003906 187.730469 9.964844 186.984375 9.964844 C 186.234375 9.964844 185.488281 10.003906 184.742188 10.074219 C 184 10.148438 183.261719 10.257812 182.527344 10.40625 C 181.792969 10.550781 181.066406 10.734375 180.351562 10.949219 C 179.636719 11.167969 178.933594 11.417969 178.242188 11.707031 C 177.550781 11.992188 176.875 12.3125 176.214844 12.664062 C 175.554688 13.015625 174.914062 13.402344 174.292969 13.816406 C 173.667969 14.234375 173.070312 14.679688 172.492188 15.152344 C 171.914062 15.628906 171.359375 16.128906 170.832031 16.660156 L 138.679688 48.808594 L 179.476562 89.605469 C 188.96875 86.277344 199.832031 88.550781 207.390625 96.113281 C 208.289062 97.007812 209.117188 97.964844 209.878906 98.976562 C 210.640625 99.988281 211.328125 101.050781 211.941406 102.160156 C 212.554688 103.269531 213.085938 104.414062 213.539062 105.597656 C 213.992188 106.78125 214.359375 107.992188 214.644531 109.226562 C 214.925781 110.460938 215.121094 111.710938 215.230469 112.972656 C 215.339844 114.238281 215.359375 115.5 215.289062 116.765625 C 215.222656 118.03125 215.066406 119.285156 214.820312 120.53125 C 214.578125 121.773438 214.25 122.996094 213.832031 124.191406 L 253.15625 163.515625 C 262.667969 160.234375 273.640625 162.351562 281.234375 169.964844 C 281.867188 170.597656 282.464844 171.253906 283.027344 171.941406 C 283.59375 172.632812 284.125 173.347656 284.621094 174.085938 C 285.113281 174.828125 285.570312 175.589844 285.992188 176.375 C 286.414062 177.160156 286.792969 177.964844 287.132812 178.789062 C 287.476562 179.609375 287.773438 180.449219 288.035156 181.300781 C 288.292969 182.152344 288.507812 183.015625 288.683594 183.890625 C 288.855469 184.761719 288.988281 185.644531 289.074219 186.53125 C 289.160156 187.417969 289.207031 188.304688 289.207031 189.195312 C 289.207031 190.085938 289.164062 190.976562 289.074219 191.863281 C 288.988281 192.75 288.855469 193.628906 288.683594 194.5 C 288.511719 195.375 288.292969 196.238281 288.035156 197.089844 C 287.777344 197.941406 287.476562 198.78125 287.136719 199.605469 C 286.796875 200.425781 286.414062 201.230469 285.996094 202.015625 C 285.574219 202.800781 285.117188 203.566406 284.621094 204.304688 C 284.128906 205.046875 283.597656 205.761719 283.03125 206.449219 C 282.46875 207.136719 281.871094 207.796875 281.238281 208.425781 C 280.609375 209.058594 279.949219 209.652344 279.261719 210.21875 C 278.574219 210.785156 277.859375 211.3125 277.117188 211.808594 C 276.375 212.304688 275.613281 212.761719 274.828125 213.179688 C 274.042969 213.601562 273.238281 213.980469 272.414062 214.320312 C 271.589844 214.660156 270.753906 214.960938 269.902344 215.21875 C 269.050781 215.476562 268.1875 215.695312 267.3125 215.867188 C 266.4375 216.039062 265.558594 216.171875 264.671875 216.257812 C 263.785156 216.34375 262.898438 216.386719 262.007812 216.386719 C 261.113281 216.386719 260.226562 216.34375 259.339844 216.257812 C 258.453125 216.167969 257.574219 216.039062 256.699219 215.863281 C 255.828125 215.6875 254.964844 215.472656 254.113281 215.214844 C 253.257812 214.953125 252.421875 214.652344 251.597656 214.3125 C 250.777344 213.972656 249.972656 213.589844 249.1875 213.171875 C 248.402344 212.75 247.636719 212.292969 246.898438 211.796875 C 246.15625 211.300781 245.441406 210.769531 244.753906 210.207031 C 244.066406 209.640625 243.40625 209.042969 242.777344 208.414062 C 234.796875 200.429688 232.824219 188.679688 236.859375 178.847656 L 200.1875 142.171875 L 200.1875 238.675781 C 202.867188 240.003906 205.269531 241.71875 207.390625 243.820312 C 208.023438 244.449219 208.617188 245.109375 209.183594 245.796875 C 209.75 246.484375 210.277344 247.199219 210.773438 247.941406 C 211.269531 248.679688 211.726562 249.441406 212.144531 250.226562 C 212.5625 251.015625 212.945312 251.816406 213.285156 252.640625 C 213.625 253.460938 213.925781 254.300781 214.183594 255.152344 C 214.441406 256.003906 214.660156 256.867188 214.832031 257.738281 C 215.007812 258.613281 215.136719 259.492188 215.222656 260.378906 C 215.3125 261.265625 215.355469 262.152344 215.355469 263.042969 C 215.355469 263.933594 215.3125 264.820312 215.222656 265.707031 C 215.136719 266.59375 215.007812 267.472656 214.832031 268.347656 C 214.660156 269.21875 214.441406 270.082031 214.183594 270.933594 C 213.925781 271.789062 213.625 272.625 213.285156 273.445312 C 212.945312 274.269531 212.5625 275.074219 212.144531 275.859375 C 211.726562 276.644531 211.269531 277.40625 210.773438 278.148438 C 210.277344 278.886719 209.75 279.601562 209.183594 280.289062 C 208.617188 280.976562 208.023438 281.636719 207.390625 282.265625 C 206.761719 282.894531 206.105469 283.492188 205.414062 284.058594 C 204.726562 284.625 204.011719 285.152344 203.273438 285.648438 C 202.53125 286.140625 201.769531 286.597656 200.984375 287.019531 C 200.199219 287.4375 199.394531 287.820312 198.574219 288.160156 C 197.75 288.5 196.914062 288.800781 196.0625 289.058594 C 195.207031 289.316406 194.347656 289.53125 193.472656 289.707031 C 192.597656 289.878906 191.71875 290.011719 190.832031 290.097656 C 189.949219 290.183594 189.058594 290.230469 188.167969 290.230469 C 187.277344 290.230469 186.390625 290.183594 185.503906 290.097656 C 184.617188 290.011719 183.738281 289.878906 182.867188 289.707031 C 181.992188 289.53125 181.128906 289.316406 180.277344 289.058594 C 179.425781 288.800781 178.589844 288.5 177.765625 288.160156 C 176.941406 287.820312 176.140625 287.4375 175.355469 287.019531 C 174.570312 286.597656 173.804688 286.140625 173.066406 285.648438 C 172.324219 285.152344 171.609375 284.625 170.921875 284.058594 C 170.234375 283.492188 169.574219 282.894531 168.945312 282.265625 C 168.316406 281.636719 167.71875 280.980469 167.152344 280.289062 C 166.585938 279.601562 166.054688 278.890625 165.5625 278.148438 C 165.066406 277.410156 164.609375 276.644531 164.1875 275.859375 C 163.769531 275.074219 163.386719 274.273438 163.046875 273.449219 C 162.703125 272.625 162.40625 271.789062 162.144531 270.9375 C 161.886719 270.085938 161.671875 269.222656 161.496094 268.347656 C 161.324219 267.476562 161.191406 266.59375 161.105469 265.707031 C 161.015625 264.824219 160.972656 263.933594 160.972656 263.042969 C 160.972656 262.152344 161.015625 261.265625 161.105469 260.378906 C 161.191406 259.492188 161.324219 258.613281 161.496094 257.738281 C 161.671875 256.867188 161.886719 256.003906 162.144531 255.148438 C 162.40625 254.296875 162.703125 253.460938 163.046875 252.636719 C 163.386719 251.816406 163.769531 251.011719 164.1875 250.226562 C 164.609375 249.441406 165.066406 248.679688 165.5625 247.9375 C 166.054688 247.199219 166.585938 246.484375 167.152344 245.796875 C 167.71875 245.109375 168.316406 244.449219 168.945312 243.820312 C 171.574219 241.203125 174.488281 239.21875 177.847656 237.890625 L 177.847656 140.488281 C 174.609375 139.160156 171.574219 137.195312 168.945312 134.558594 C 167.996094 133.609375 167.125 132.597656 166.324219 131.519531 C 165.523438 130.441406 164.808594 129.3125 164.179688 128.128906 C 163.546875 126.945312 163.003906 125.722656 162.554688 124.457031 C 162.105469 123.195312 161.75 121.90625 161.492188 120.589844 C 161.230469 119.273438 161.070312 117.945312 161.007812 116.605469 C 160.945312 115.265625 160.984375 113.925781 161.117188 112.59375 C 161.253906 111.257812 161.488281 109.941406 161.820312 108.640625 C 162.148438 107.339844 162.574219 106.074219 163.09375 104.835938 L 122.851562 64.617188 L 16.648438 170.707031 C 16.117188 171.238281 15.617188 171.792969 15.140625 172.371094 C 14.664062 172.949219 14.21875 173.546875 13.804688 174.171875 C 13.386719 174.792969 13.003906 175.433594 12.648438 176.09375 C 12.296875 176.753906 11.976562 177.429688 11.691406 178.121094 C 11.402344 178.8125 11.152344 179.515625 10.933594 180.234375 C 10.714844 180.949219 10.535156 181.675781 10.390625 182.40625 C 10.242188 183.140625 10.132812 183.882812 10.058594 184.625 C 9.984375 185.371094 9.949219 186.117188 9.949219 186.867188 C 9.949219 187.613281 9.984375 188.363281 10.058594 189.105469 C 10.132812 189.851562 10.242188 190.589844 10.390625 191.324219 C 10.535156 192.058594 10.714844 192.785156 10.933594 193.5 C 11.152344 194.21875 11.402344 194.921875 11.691406 195.613281 C 11.976562 196.304688 12.296875 196.980469 12.648438 197.640625 C 13.003906 198.300781 13.386719 198.941406 13.804688 199.5625 C 14.21875 200.183594 14.664062 200.785156 15.140625 201.363281 C 15.617188 201.941406 16.117188 202.496094 16.648438 203.023438 L 171.539062 357.894531 C 172.070312 358.425781 172.621094 358.925781 173.199219 359.402344 C 173.777344 359.875 174.378906 360.320312 175 360.738281 C 175.625 361.152344 176.265625 361.535156 176.925781 361.890625 C 177.582031 362.242188 178.257812 362.5625 178.949219 362.847656 C 179.640625 363.132812 180.34375 363.386719 181.0625 363.605469 C 181.777344 363.820312 182.503906 364.003906 183.234375 364.148438 C 183.96875 364.292969 184.707031 364.402344 185.453125 364.476562 C 186.199219 364.550781 186.945312 364.585938 187.691406 364.585938 C 188.441406 364.585938 189.1875 364.550781 189.929688 364.476562 C 190.675781 364.402344 191.414062 364.292969 192.148438 364.148438 C 192.882812 364.003906 193.609375 363.820312 194.324219 363.605469 C 195.039062 363.386719 195.742188 363.132812 196.433594 362.847656 C 197.125 362.5625 197.800781 362.242188 198.460938 361.890625 C 199.121094 361.535156 199.761719 361.152344 200.382812 360.738281 C 201.003906 360.320312 201.605469 359.875 202.183594 359.402344 C 202.761719 358.925781 203.316406 358.425781 203.84375 357.894531 L 358.015625 203.964844 C 358.546875 203.4375 359.046875 202.882812 359.523438 202.304688 C 360 201.726562 360.445312 201.128906 360.859375 200.503906 C 361.277344 199.882812 361.660156 199.242188 362.015625 198.582031 C 362.367188 197.921875 362.6875 197.246094 362.972656 196.554688 C 363.261719 195.863281 363.511719 195.160156 363.730469 194.441406 C 363.949219 193.726562 364.128906 193 364.277344 192.265625 C 364.421875 191.535156 364.53125 190.792969 364.605469 190.050781 C 364.679688 189.304688 364.714844 188.558594 364.714844 187.808594 C 364.714844 187.058594 364.679688 186.3125 364.605469 185.570312 C 364.53125 184.824219 364.421875 184.085938 364.277344 183.351562 C 364.128906 182.617188 363.949219 181.890625 363.730469 181.175781 C 363.511719 180.457031 363.261719 179.753906 362.972656 179.0625 C 362.6875 178.371094 362.367188 177.695312 362.015625 177.035156 C 361.660156 176.375 361.277344 175.734375 360.859375 175.113281 C 360.445312 174.492188 360 173.890625 359.523438 173.3125 C 359.046875 172.734375 358.546875 172.179688 358.015625 171.652344 " fill-opacity="1" fill-rule="nonzero"/></g></svg>