<svg xmlns="http://www.w3.org/2000/svg" xmlns:xlink="http://www.w3.org/1999/xlink" width="500" zoomAndPan="magnify" viewBox="0 0 375 374.999991" height="500" preserveAspectRatio="xMidYMid meet" version="1.0"><defs><clipPath id="161e7c580a"><path d="M 0 90 L 375 90 L 375 284.800781 L 0 284.800781 Z M 0 90 " clip-rule="nonzero"/></clipPath><clipPath id="635f4002ca"><path d="M 0 187.308594 C 0 240.945312 83.949219 284.425781 187.5 284.425781 C 291.046875 284.425781 374.996094 240.945312 374.996094 187.308594 C 374.996094 133.671875 291.046875 90.191406 187.5 90.191406 C 83.949219 90.191406 0 133.675781 0 187.308594 " clip-rule="nonzero"/></clipPath><clipPath id="10e4f5a130"><path d="M 0 187.308594 C 0 240.945312 83.949219 284.425781 187.5 284.425781 C 291.046875 284.425781 374.996094 240.945312 374.996094 187.308594 C 374.996094 133.671875 291.046875 90.191406 187.5 90.191406 C 83.949219 90.191406 0 133.675781 0 187.308594 " clip-rule="nonzero"/></clipPath><radialGradient gradientTransform="matrix(1.007735, 0, 0, 0.992265, 112.575266, 124.332697)" gradientUnits="userSpaceOnUse" r="244.324284" cx="0" id="767268cb51" cy="0" fx="0" fy="0"><stop stop-opacity="1" stop-color="rgb(68.199158%, 69.799805%, 83.499146%)" offset="0"/><stop stop-opacity="1" stop-color="rgb(68.199158%, 69.799805%, 83.499146%)" offset="0.25"/><stop stop-opacity="1" stop-color="rgb(68.164062%, 69.764709%, 83.473206%)" offset="0.296875"/><stop stop-opacity="1" stop-color="rgb(67.956543%, 69.555664%, 83.317566%)" offset="0.300781"/><stop stop-opacity="1" stop-color="rgb(67.608643%, 69.20929%, 83.059692%)" offset="0.304688"/><stop stop-opacity="1" stop-color="rgb(67.260742%, 68.861389%, 82.800293%)" offset="0.308594"/><stop stop-opacity="1" stop-color="rgb(66.914368%, 68.513489%, 82.542419%)" offset="0.3125"/><stop stop-opacity="1" stop-color="rgb(66.566467%, 68.167114%, 82.28302%)" offset="0.316406"/><stop stop-opacity="1" stop-color="rgb(66.220093%, 67.819214%, 82.025146%)" offset="0.320312"/><stop stop-opacity="1" stop-color="rgb(65.872192%, 67.472839%, 81.765747%)" offset="0.324219"/><stop stop-opacity="1" stop-color="rgb(65.525818%, 67.124939%, 81.506348%)" offset="0.328125"/><stop stop-opacity="1" stop-color="rgb(65.177917%, 66.778564%, 81.248474%)" offset="0.332031"/><stop stop-opacity="1" stop-color="rgb(64.831543%, 66.430664%, 80.989075%)" offset="0.335938"/><stop stop-opacity="1" stop-color="rgb(64.483643%, 66.08429%, 80.731201%)" offset="0.339844"/><stop stop-opacity="1" stop-color="rgb(64.135742%, 65.736389%, 80.471802%)" offset="0.34375"/><stop stop-opacity="1" stop-color="rgb(63.789368%, 65.388489%, 80.213928%)" offset="0.347656"/><stop stop-opacity="1" stop-color="rgb(63.441467%, 65.042114%, 79.954529%)" offset="0.351562"/><stop stop-opacity="1" stop-color="rgb(63.095093%, 64.694214%, 79.696655%)" offset="0.355469"/><stop stop-opacity="1" stop-color="rgb(62.747192%, 64.347839%, 79.437256%)" offset="0.359375"/><stop stop-opacity="1" stop-color="rgb(62.400818%, 63.999939%, 79.179382%)" offset="0.363281"/><stop stop-opacity="1" stop-color="rgb(62.052917%, 63.653564%, 78.919983%)" offset="0.367188"/><stop stop-opacity="1" stop-color="rgb(61.706543%, 63.305664%, 78.662109%)" offset="0.371094"/><stop stop-opacity="1" stop-color="rgb(61.358643%, 62.95929%, 78.40271%)" offset="0.375"/><stop stop-opacity="1" stop-color="rgb(61.010742%, 62.611389%, 78.144836%)" offset="0.378906"/><stop stop-opacity="1" stop-color="rgb(60.664368%, 62.263489%, 77.885437%)" offset="0.382812"/><stop stop-opacity="1" stop-color="rgb(60.316467%, 61.917114%, 77.627563%)" offset="0.386719"/><stop stop-opacity="1" stop-color="rgb(59.970093%, 61.569214%, 77.368164%)" offset="0.390625"/><stop stop-opacity="1" stop-color="rgb(59.622192%, 61.222839%, 77.108765%)" offset="0.394531"/><stop stop-opacity="1" stop-color="rgb(59.275818%, 60.874939%, 76.850891%)" offset="0.398438"/><stop stop-opacity="1" stop-color="rgb(58.927917%, 60.528564%, 76.591492%)" offset="0.402344"/><stop stop-opacity="1" stop-color="rgb(58.581543%, 60.180664%, 76.333618%)" offset="0.40625"/><stop stop-opacity="1" stop-color="rgb(58.233643%, 59.83429%, 76.074219%)" offset="0.410156"/><stop stop-opacity="1" stop-color="rgb(57.885742%, 59.486389%, 75.816345%)" offset="0.414062"/><stop stop-opacity="1" stop-color="rgb(57.539368%, 59.138489%, 75.556946%)" offset="0.417969"/><stop stop-opacity="1" stop-color="rgb(57.191467%, 58.792114%, 75.299072%)" offset="0.421875"/><stop stop-opacity="1" stop-color="rgb(56.845093%, 58.444214%, 75.039673%)" offset="0.425781"/><stop stop-opacity="1" stop-color="rgb(56.497192%, 58.097839%, 74.781799%)" offset="0.429688"/><stop stop-opacity="1" stop-color="rgb(56.150818%, 57.749939%, 74.5224%)" offset="0.433594"/><stop stop-opacity="1" stop-color="rgb(55.802917%, 57.403564%, 74.264526%)" offset="0.4375"/><stop stop-opacity="1" stop-color="rgb(55.456543%, 57.055664%, 74.005127%)" offset="0.441406"/><stop stop-opacity="1" stop-color="rgb(55.108643%, 56.70929%, 73.747253%)" offset="0.445312"/><stop stop-opacity="1" stop-color="rgb(54.760742%, 56.361389%, 73.487854%)" offset="0.449219"/><stop stop-opacity="1" stop-color="rgb(54.414368%, 56.013489%, 73.22998%)" offset="0.453125"/><stop stop-opacity="1" stop-color="rgb(54.066467%, 55.667114%, 72.970581%)" offset="0.457031"/><stop stop-opacity="1" stop-color="rgb(53.720093%, 55.319214%, 72.711182%)" offset="0.460938"/><stop stop-opacity="1" stop-color="rgb(53.372192%, 54.972839%, 72.453308%)" offset="0.464844"/><stop stop-opacity="1" stop-color="rgb(53.025818%, 54.624939%, 72.193909%)" offset="0.46875"/><stop stop-opacity="1" stop-color="rgb(52.677917%, 54.278564%, 71.936035%)" offset="0.472656"/><stop stop-opacity="1" stop-color="rgb(52.331543%, 53.930664%, 71.676636%)" offset="0.476562"/><stop stop-opacity="1" stop-color="rgb(51.983643%, 53.58429%, 71.418762%)" offset="0.480469"/><stop stop-opacity="1" stop-color="rgb(51.635742%, 53.236389%, 71.159363%)" offset="0.484375"/><stop stop-opacity="1" stop-color="rgb(51.289368%, 52.888489%, 70.901489%)" offset="0.488281"/><stop stop-opacity="1" stop-color="rgb(50.941467%, 52.542114%, 70.64209%)" offset="0.492188"/><stop stop-opacity="1" stop-color="rgb(50.595093%, 52.194214%, 70.384216%)" offset="0.496094"/><stop stop-opacity="1" stop-color="rgb(50.247192%, 51.847839%, 70.124817%)" offset="0.5"/><stop stop-opacity="1" stop-color="rgb(49.900818%, 51.499939%, 69.866943%)" offset="0.503906"/><stop stop-opacity="1" stop-color="rgb(49.552917%, 51.153564%, 69.607544%)" offset="0.507812"/><stop stop-opacity="1" stop-color="rgb(49.206543%, 50.805664%, 69.34967%)" offset="0.511719"/><stop stop-opacity="1" stop-color="rgb(48.858643%, 50.45929%, 69.090271%)" offset="0.515625"/><stop stop-opacity="1" stop-color="rgb(48.510742%, 50.111389%, 68.832397%)" offset="0.519531"/><stop stop-opacity="1" stop-color="rgb(48.164368%, 49.763489%, 68.572998%)" offset="0.523438"/><stop stop-opacity="1" stop-color="rgb(47.816467%, 49.417114%, 68.313599%)" offset="0.527344"/><stop stop-opacity="1" stop-color="rgb(47.470093%, 49.069214%, 68.055725%)" offset="0.53125"/><stop stop-opacity="1" stop-color="rgb(47.122192%, 48.722839%, 67.796326%)" offset="0.535156"/><stop stop-opacity="1" stop-color="rgb(46.775818%, 48.374939%, 67.538452%)" offset="0.539062"/><stop stop-opacity="1" stop-color="rgb(46.427917%, 48.028564%, 67.279053%)" offset="0.542969"/><stop stop-opacity="1" stop-color="rgb(46.081543%, 47.680664%, 67.021179%)" offset="0.546875"/><stop stop-opacity="1" stop-color="rgb(45.733643%, 47.33429%, 66.76178%)" offset="0.550781"/><stop stop-opacity="1" stop-color="rgb(45.385742%, 46.986389%, 66.503906%)" offset="0.554688"/><stop stop-opacity="1" stop-color="rgb(45.039368%, 46.638489%, 66.244507%)" offset="0.558594"/><stop stop-opacity="1" stop-color="rgb(44.691467%, 46.292114%, 65.986633%)" offset="0.5625"/><stop stop-opacity="1" stop-color="rgb(44.345093%, 45.944214%, 65.727234%)" offset="0.566406"/><stop stop-opacity="1" stop-color="rgb(43.997192%, 45.597839%, 65.46936%)" offset="0.570312"/><stop stop-opacity="1" stop-color="rgb(43.650818%, 45.249939%, 65.209961%)" offset="0.574219"/><stop stop-opacity="1" stop-color="rgb(43.302917%, 44.903564%, 64.952087%)" offset="0.578125"/><stop stop-opacity="1" stop-color="rgb(42.956543%, 44.555664%, 64.692688%)" offset="0.582031"/><stop stop-opacity="1" stop-color="rgb(42.608643%, 44.20929%, 64.434814%)" offset="0.585938"/><stop stop-opacity="1" stop-color="rgb(42.260742%, 43.861389%, 64.175415%)" offset="0.589844"/><stop stop-opacity="1" stop-color="rgb(41.914368%, 43.513489%, 63.916016%)" offset="0.59375"/><stop stop-opacity="1" stop-color="rgb(41.566467%, 43.167114%, 63.658142%)" offset="0.597656"/><stop stop-opacity="1" stop-color="rgb(41.220093%, 42.819214%, 63.398743%)" offset="0.601562"/><stop stop-opacity="1" stop-color="rgb(40.872192%, 42.472839%, 63.140869%)" offset="0.605469"/><stop stop-opacity="1" stop-color="rgb(40.525818%, 42.124939%, 62.88147%)" offset="0.609375"/><stop stop-opacity="1" stop-color="rgb(40.177917%, 41.778564%, 62.623596%)" offset="0.613281"/><stop stop-opacity="1" stop-color="rgb(39.831543%, 41.430664%, 62.364197%)" offset="0.617188"/><stop stop-opacity="1" stop-color="rgb(39.483643%, 41.08429%, 62.106323%)" offset="0.621094"/><stop stop-opacity="1" stop-color="rgb(39.135742%, 40.736389%, 61.846924%)" offset="0.625"/><stop stop-opacity="1" stop-color="rgb(38.789368%, 40.388489%, 61.58905%)" offset="0.628906"/><stop stop-opacity="1" stop-color="rgb(38.441467%, 40.042114%, 61.329651%)" offset="0.632812"/><stop stop-opacity="1" stop-color="rgb(38.095093%, 39.694214%, 61.071777%)" offset="0.636719"/><stop stop-opacity="1" stop-color="rgb(37.747192%, 39.347839%, 60.812378%)" offset="0.640625"/><stop stop-opacity="1" stop-color="rgb(37.400818%, 38.999939%, 60.554504%)" offset="0.644531"/><stop stop-opacity="1" stop-color="rgb(37.052917%, 38.653564%, 60.295105%)" offset="0.648438"/><stop stop-opacity="1" stop-color="rgb(36.706543%, 38.305664%, 60.037231%)" offset="0.652344"/><stop stop-opacity="1" stop-color="rgb(36.358643%, 37.95929%, 59.777832%)" offset="0.65625"/><stop stop-opacity="1" stop-color="rgb(36.010742%, 37.611389%, 59.518433%)" offset="0.660156"/><stop stop-opacity="1" stop-color="rgb(35.664368%, 37.263489%, 59.260559%)" offset="0.664062"/><stop stop-opacity="1" stop-color="rgb(35.316467%, 36.917114%, 59.00116%)" offset="0.667969"/><stop stop-opacity="1" stop-color="rgb(34.970093%, 36.569214%, 58.743286%)" offset="0.671875"/><stop stop-opacity="1" stop-color="rgb(34.622192%, 36.222839%, 58.483887%)" offset="0.675781"/><stop stop-opacity="1" stop-color="rgb(34.275818%, 35.874939%, 58.226013%)" offset="0.679688"/><stop stop-opacity="1" stop-color="rgb(33.927917%, 35.528564%, 57.966614%)" offset="0.683594"/><stop stop-opacity="1" stop-color="rgb(33.581543%, 35.180664%, 57.70874%)" offset="0.6875"/><stop stop-opacity="1" stop-color="rgb(33.233643%, 34.83429%, 57.449341%)" offset="0.691406"/><stop stop-opacity="1" stop-color="rgb(32.885742%, 34.486389%, 57.191467%)" offset="0.695312"/><stop stop-opacity="1" stop-color="rgb(32.539368%, 34.138489%, 56.932068%)" offset="0.699219"/><stop stop-opacity="1" stop-color="rgb(32.191467%, 33.792114%, 56.674194%)" offset="0.703125"/><stop stop-opacity="1" stop-color="rgb(31.845093%, 33.444214%, 56.414795%)" offset="0.707031"/><stop stop-opacity="1" stop-color="rgb(31.497192%, 33.097839%, 56.156921%)" offset="0.710938"/><stop stop-opacity="1" stop-color="rgb(31.150818%, 32.749939%, 55.897522%)" offset="0.714844"/><stop stop-opacity="1" stop-color="rgb(30.802917%, 32.403564%, 55.639648%)" offset="0.71875"/><stop stop-opacity="1" stop-color="rgb(30.456543%, 32.055664%, 55.380249%)" offset="0.722656"/><stop stop-opacity="1" stop-color="rgb(30.108643%, 31.70929%, 55.122375%)" offset="0.726562"/><stop stop-opacity="1" stop-color="rgb(29.760742%, 31.361389%, 54.862976%)" offset="0.730469"/><stop stop-opacity="1" stop-color="rgb(29.414368%, 31.013489%, 54.603577%)" offset="0.734375"/><stop stop-opacity="1" stop-color="rgb(29.066467%, 30.667114%, 54.345703%)" offset="0.738281"/><stop stop-opacity="1" stop-color="rgb(28.720093%, 30.319214%, 54.086304%)" offset="0.742188"/><stop stop-opacity="1" stop-color="rgb(28.372192%, 29.972839%, 53.82843%)" offset="0.746094"/><stop stop-opacity="1" stop-color="rgb(28.199768%, 29.798889%, 53.69873%)" offset="1"/></radialGradient></defs><g clip-path="url(#161e7c580a)"><g clip-path="url(#635f4002ca)"><g clip-path="url(#10e4f5a130)"><path fill="url(#767268cb51)" d="M 0 90.191406 L 0 284.425781 L 374.996094 284.425781 L 374.996094 90.191406 Z M 0 90.191406 " fill-rule="nonzero"/></g></g></g><path fill="#777bb3" d="M 187.5 277.214844 C 287.003906 277.214844 367.671875 236.960938 367.671875 187.308594 C 367.671875 137.65625 287.003906 97.402344 187.5 97.402344 C 87.992188 97.402344 7.324219 137.65625 7.324219 187.308594 C 7.324219 236.960938 87.992188 277.214844 187.5 277.214844 " fill-opacity="1" fill-rule="nonzero"/><path fill="#000000" d="M 101.867188 198.453125 C 110.050781 198.453125 116.15625 196.96875 120.023438 194.039062 C 123.84375 191.140625 126.484375 186.117188 127.871094 179.113281 C 129.160156 172.566406 128.667969 167.992188 126.410156 165.527344 C 124.097656 163.003906 119.101562 161.726562 111.5625 161.726562 L 98.488281 161.726562 L 91.238281 198.453125 Z M 59.101562 243.695312 C 58.496094 243.695312 57.917969 243.429688 57.53125 242.964844 C 57.125 242.480469 56.984375 241.929688 57.105469 241.308594 L 76.316406 143.984375 C 76.363281 143.757812 76.445312 143.542969 76.566406 143.34375 C 76.6875 143.144531 76.835938 142.96875 77.019531 142.820312 C 77.203125 142.675781 77.402344 142.5625 77.625 142.484375 C 77.847656 142.402344 78.078125 142.363281 78.3125 142.363281 L 119.71875 142.363281 C 132.730469 142.363281 142.417969 145.835938 148.503906 152.707031 C 154.625 159.605469 156.515625 169.246094 154.121094 181.367188 C 153.148438 186.304688 151.472656 190.886719 149.144531 194.996094 C 146.8125 199.105469 143.730469 202.90625 139.980469 206.300781 C 135.496094 210.433594 130.417969 213.433594 124.902344 215.195312 C 119.476562 216.9375 112.503906 217.820312 104.1875 217.820312 L 87.421875 217.820312 L 82.632812 242.074219 C 82.585938 242.304688 82.503906 242.519531 82.382812 242.71875 C 82.261719 242.917969 82.113281 243.089844 81.929688 243.238281 C 81.746094 243.386719 81.546875 243.5 81.324219 243.578125 C 81.101562 243.65625 80.871094 243.695312 80.636719 243.695312 L 59.097656 243.695312 Z M 59.101562 243.695312 " fill-opacity="1" fill-rule="nonzero"/><path fill="#ffffff" d="M 100.164062 163.730469 L 111.5625 163.730469 C 120.664062 163.730469 123.828125 165.695312 124.902344 166.867188 C 126.683594 168.8125 127.019531 172.917969 125.875 178.734375 C 124.585938 185.242188 122.199219 189.859375 118.78125 192.453125 C 115.28125 195.105469 109.589844 196.449219 101.867188 196.449219 L 93.710938 196.449219 L 100.167969 163.730469 Z M 119.714844 140.359375 L 78.3125 140.359375 C 77.84375 140.359375 77.382812 140.4375 76.941406 140.59375 C 76.496094 140.75 76.089844 140.976562 75.726562 141.273438 C 75.363281 141.570312 75.058594 141.917969 74.816406 142.316406 C 74.578125 142.714844 74.410156 143.144531 74.320312 143.601562 L 55.109375 240.933594 C 55.054688 241.222656 55.027344 241.515625 55.039062 241.808594 C 55.046875 242.105469 55.085938 242.394531 55.160156 242.683594 C 55.234375 242.96875 55.339844 243.242188 55.476562 243.507812 C 55.609375 243.769531 55.773438 244.015625 55.964844 244.246094 C 56.15625 244.472656 56.371094 244.675781 56.605469 244.859375 C 56.84375 245.039062 57.097656 245.195312 57.367188 245.320312 C 57.640625 245.445312 57.921875 245.542969 58.214844 245.605469 C 58.507812 245.671875 58.804688 245.703125 59.105469 245.703125 L 80.636719 245.703125 C 81.109375 245.703125 81.566406 245.625 82.011719 245.46875 C 82.457031 245.308594 82.859375 245.082031 83.222656 244.789062 C 83.589844 244.492188 83.890625 244.144531 84.132812 243.746094 C 84.375 243.34375 84.539062 242.917969 84.628906 242.460938 L 89.097656 219.828125 L 104.1875 219.828125 C 112.71875 219.828125 119.902344 218.910156 125.535156 217.105469 C 131.328125 215.25 136.65625 212.109375 141.375 207.765625 C 145.273438 204.234375 148.496094 200.265625 150.921875 195.976562 C 153.351562 191.6875 155.105469 186.898438 156.121094 181.753906 C 158.640625 168.996094 156.59375 158.78125 150.039062 151.390625 C 143.546875 144.074219 133.347656 140.363281 119.722656 140.363281 M 88.773438 200.460938 L 101.871094 200.460938 C 110.550781 200.460938 117.019531 198.851562 121.265625 195.632812 C 125.515625 192.410156 128.382812 187.035156 129.871094 179.5 C 131.296875 172.269531 130.648438 167.164062 127.925781 164.191406 C 125.203125 161.214844 119.746094 159.730469 111.566406 159.730469 L 96.816406 159.730469 L 88.773438 200.460938 M 119.722656 144.371094 C 132.175781 144.371094 141.265625 147.589844 146.976562 154.027344 C 152.6875 160.464844 154.40625 169.449219 152.128906 180.988281 C 151.191406 185.738281 149.605469 190.085938 147.371094 194.019531 C 145.136719 197.957031 142.214844 201.5625 138.605469 204.828125 C 134.308594 208.789062 129.53125 211.613281 124.277344 213.296875 C 119.019531 214.980469 112.328125 215.820312 104.1875 215.820312 L 85.746094 215.820312 L 80.636719 241.695312 L 59.105469 241.695312 L 78.320312 144.378906 L 119.722656 144.378906 " fill-opacity="1" fill-rule="nonzero"/><path fill="#000000" d="M 203.488281 217.816406 C 202.882812 217.816406 202.304688 217.550781 201.921875 217.089844 C 201.535156 216.625 201.375 216.019531 201.492188 215.433594 L 209.992188 172.371094 C 210.800781 168.273438 210.601562 165.335938 209.429688 164.09375 C 208.714844 163.332031 206.5625 162.058594 200.203125 162.058594 L 184.804688 162.058594 L 174.121094 216.195312 C 174.078125 216.425781 173.996094 216.636719 173.875 216.839844 C 173.753906 217.039062 173.601562 217.210938 173.417969 217.359375 C 173.238281 217.507812 173.035156 217.621094 172.8125 217.699219 C 172.589844 217.777344 172.359375 217.816406 172.125 217.816406 L 150.761719 217.816406 C 150.457031 217.816406 150.167969 217.753906 149.894531 217.625 C 149.621094 217.5 149.386719 217.320312 149.191406 217.089844 C 149 216.859375 148.867188 216.597656 148.789062 216.308594 C 148.714844 216.019531 148.707031 215.726562 148.765625 215.433594 L 167.976562 118.105469 C 168.023438 117.878906 168.105469 117.664062 168.226562 117.464844 C 168.347656 117.265625 168.496094 117.089844 168.679688 116.945312 C 168.863281 116.796875 169.0625 116.683594 169.285156 116.605469 C 169.507812 116.527344 169.738281 116.488281 169.972656 116.488281 L 191.335938 116.488281 C 191.640625 116.488281 191.929688 116.550781 192.203125 116.679688 C 192.476562 116.804688 192.710938 116.984375 192.90625 117.214844 C 193.097656 117.445312 193.234375 117.707031 193.308594 117.996094 C 193.382812 118.285156 193.390625 118.578125 193.332031 118.871094 L 188.695312 142.363281 L 205.257812 142.363281 C 217.875 142.363281 226.429688 144.550781 231.417969 149.058594 C 236.503906 153.65625 238.082031 161.003906 236.128906 170.90625 L 227.1875 216.199219 C 227.144531 216.425781 227.0625 216.640625 226.941406 216.839844 C 226.820312 217.039062 226.667969 217.214844 226.484375 217.359375 C 226.304688 217.507812 226.101562 217.621094 225.878906 217.699219 C 225.65625 217.78125 225.429688 217.820312 225.191406 217.820312 L 203.492188 217.820312 Z M 203.488281 217.816406 " fill-opacity="1" fill-rule="nonzero"/><path fill="#ffffff" d="M 191.335938 114.484375 L 169.976562 114.484375 C 169.503906 114.484375 169.042969 114.5625 168.601562 114.71875 C 168.15625 114.875 167.75 115.101562 167.386719 115.398438 C 167.023438 115.695312 166.71875 116.042969 166.476562 116.441406 C 166.238281 116.839844 166.070312 117.269531 165.980469 117.726562 L 146.769531 215.050781 C 146.710938 215.339844 146.6875 215.632812 146.695312 215.929688 C 146.707031 216.222656 146.746094 216.515625 146.820312 216.800781 C 146.894531 217.085938 147 217.363281 147.132812 217.625 C 147.269531 217.890625 147.433594 218.136719 147.625 218.363281 C 147.816406 218.589844 148.027344 218.796875 148.265625 218.976562 C 148.503906 219.160156 148.757812 219.3125 149.027344 219.4375 C 149.300781 219.5625 149.582031 219.660156 149.875 219.722656 C 150.167969 219.789062 150.464844 219.820312 150.765625 219.820312 L 172.125 219.820312 C 172.597656 219.820312 173.058594 219.742188 173.5 219.585938 C 173.945312 219.429688 174.351562 219.203125 174.714844 218.90625 C 175.078125 218.609375 175.382812 218.261719 175.625 217.863281 C 175.863281 217.464844 176.03125 217.035156 176.121094 216.578125 L 186.484375 164.0625 L 200.203125 164.0625 C 206.554688 164.0625 207.886719 165.398438 207.941406 165.457031 C 208.324219 165.863281 208.832031 167.753906 207.996094 171.988281 L 199.5 215.050781 C 199.441406 215.339844 199.417969 215.632812 199.425781 215.929688 C 199.433594 216.222656 199.476562 216.515625 199.550781 216.800781 C 199.621094 217.085938 199.726562 217.363281 199.863281 217.625 C 200 217.890625 200.164062 218.136719 200.351562 218.363281 C 200.542969 218.589844 200.757812 218.796875 200.996094 218.976562 C 201.230469 219.160156 201.484375 219.3125 201.757812 219.4375 C 202.027344 219.5625 202.308594 219.660156 202.601562 219.722656 C 202.894531 219.789062 203.191406 219.820312 203.492188 219.820312 L 225.195312 219.820312 C 225.667969 219.820312 226.125 219.742188 226.570312 219.585938 C 227.011719 219.429688 227.417969 219.203125 227.78125 218.90625 C 228.148438 218.609375 228.449219 218.261719 228.691406 217.863281 C 228.933594 217.464844 229.097656 217.035156 229.1875 216.578125 L 238.125 171.289062 C 240.222656 160.65625 238.429688 152.683594 232.796875 147.582031 C 227.417969 142.722656 218.414062 140.359375 205.261719 140.359375 L 191.167969 140.359375 L 195.332031 119.253906 C 195.390625 118.964844 195.414062 118.671875 195.40625 118.375 C 195.398438 118.082031 195.355469 117.789062 195.285156 117.503906 C 195.210938 117.214844 195.105469 116.941406 194.96875 116.679688 C 194.832031 116.414062 194.671875 116.167969 194.480469 115.941406 C 194.289062 115.710938 194.074219 115.507812 193.835938 115.328125 C 193.601562 115.144531 193.347656 114.992188 193.074219 114.867188 C 192.804688 114.738281 192.523438 114.644531 192.230469 114.578125 C 191.9375 114.515625 191.640625 114.484375 191.339844 114.484375 M 191.339844 118.488281 L 186.234375 144.363281 L 205.261719 144.363281 C 217.238281 144.363281 225.496094 146.421875 230.042969 150.535156 C 234.589844 154.644531 235.949219 161.3125 234.132812 170.523438 L 225.195312 215.8125 L 203.496094 215.8125 L 211.992188 172.753906 C 212.960938 167.851562 212.605469 164.511719 210.925781 162.730469 C 209.246094 160.949219 205.671875 160.058594 200.207031 160.058594 L 183.128906 160.058594 L 172.125 215.8125 L 150.765625 215.8125 L 169.976562 118.488281 L 191.335938 118.488281 " fill-opacity="1" fill-rule="nonzero"/><path fill="#000000" d="M 269.929688 198.453125 C 278.113281 198.453125 284.21875 196.96875 288.085938 194.039062 C 291.90625 191.140625 294.546875 186.121094 295.933594 179.113281 C 297.222656 172.566406 296.730469 167.992188 294.472656 165.527344 C 292.160156 163.003906 287.164062 161.726562 279.625 161.726562 L 266.550781 161.726562 L 259.300781 198.453125 Z M 227.164062 243.695312 C 226.554688 243.695312 225.980469 243.425781 225.59375 242.964844 C 225.1875 242.480469 225.042969 241.925781 225.167969 241.308594 L 244.378906 143.984375 C 244.421875 143.753906 244.503906 143.542969 244.625 143.339844 C 244.746094 143.140625 244.898438 142.96875 245.082031 142.820312 C 245.261719 142.671875 245.464844 142.558594 245.6875 142.480469 C 245.910156 142.402344 246.140625 142.363281 246.375 142.363281 L 287.777344 142.363281 C 300.792969 142.363281 310.476562 145.835938 316.566406 152.703125 C 322.6875 159.601562 324.574219 169.246094 322.183594 181.363281 C 321.207031 186.300781 319.535156 190.886719 317.203125 194.992188 C 314.871094 199.101562 311.789062 202.90625 308.042969 206.296875 C 303.554688 210.433594 298.476562 213.429688 292.960938 215.195312 C 287.535156 216.9375 280.566406 217.820312 272.246094 217.820312 L 255.46875 217.820312 L 250.683594 242.074219 C 250.636719 242.300781 250.554688 242.515625 250.433594 242.714844 C 250.3125 242.914062 250.160156 243.089844 249.980469 243.238281 C 249.796875 243.386719 249.59375 243.5 249.371094 243.578125 C 249.148438 243.65625 248.921875 243.695312 248.683594 243.695312 L 227.152344 243.695312 Z M 227.164062 243.695312 " fill-opacity="1" fill-rule="nonzero"/><path fill="#ffffff" d="M 268.226562 163.730469 L 279.625 163.730469 C 288.726562 163.730469 291.890625 165.695312 292.964844 166.867188 C 294.746094 168.8125 295.082031 172.917969 293.9375 178.730469 C 292.648438 185.242188 290.261719 189.859375 286.84375 192.453125 C 283.34375 195.105469 277.652344 196.449219 269.929688 196.449219 L 261.769531 196.449219 Z M 287.777344 140.359375 L 246.375 140.359375 C 245.902344 140.359375 245.445312 140.4375 245 140.59375 C 244.554688 140.75 244.152344 140.976562 243.785156 141.273438 C 243.421875 141.570312 243.121094 141.917969 242.878906 142.316406 C 242.636719 142.714844 242.46875 143.144531 242.378906 143.601562 L 223.167969 240.933594 C 223.109375 241.222656 223.085938 241.515625 223.09375 241.808594 C 223.105469 242.105469 223.144531 242.394531 223.21875 242.683594 C 223.292969 242.96875 223.398438 243.242188 223.53125 243.507812 C 223.667969 243.769531 223.832031 244.015625 224.023438 244.246094 C 224.214844 244.472656 224.425781 244.675781 224.664062 244.859375 C 224.902344 245.039062 225.15625 245.195312 225.425781 245.320312 C 225.699219 245.445312 225.980469 245.542969 226.273438 245.605469 C 226.566406 245.671875 226.863281 245.703125 227.160156 245.703125 L 248.695312 245.703125 C 249.164062 245.703125 249.625 245.625 250.070312 245.46875 C 250.511719 245.308594 250.917969 245.082031 251.28125 244.789062 C 251.644531 244.492188 251.949219 244.144531 252.191406 243.746094 C 252.433594 243.34375 252.597656 242.917969 252.6875 242.460938 L 257.15625 219.828125 L 272.246094 219.828125 C 280.777344 219.828125 287.960938 218.910156 293.59375 217.105469 C 299.382812 215.25 304.714844 212.109375 309.433594 207.765625 C 313.332031 204.234375 316.542969 200.265625 318.980469 195.976562 C 321.414062 191.6875 323.164062 186.898438 324.179688 181.753906 C 326.699219 168.996094 324.652344 158.78125 318.097656 151.390625 C 311.605469 144.074219 301.40625 140.363281 287.777344 140.363281 M 256.832031 200.460938 L 269.929688 200.460938 C 278.609375 200.460938 285.078125 198.851562 289.324219 195.632812 C 293.574219 192.410156 296.441406 187.035156 297.929688 179.5 C 299.355469 172.269531 298.707031 167.164062 295.984375 164.191406 C 293.261719 161.214844 287.804688 159.730469 279.625 159.730469 L 264.871094 159.730469 L 256.832031 200.460938 M 287.777344 144.371094 C 300.234375 144.371094 309.320312 147.589844 315.03125 154.027344 C 320.746094 160.464844 322.464844 169.449219 320.183594 180.988281 C 319.246094 185.738281 317.660156 190.085938 315.425781 194.019531 C 313.195312 197.957031 310.273438 201.5625 306.664062 204.828125 C 302.363281 208.789062 297.589844 211.613281 292.332031 213.296875 C 287.078125 214.980469 280.382812 215.820312 272.246094 215.820312 L 253.800781 215.820312 L 248.695312 241.695312 L 227.164062 241.695312 L 246.375 144.371094 L 287.78125 144.371094 " fill-opacity="1" fill-rule="nonzero"/></svg>